<svg xmlns="http://www.w3.org/2000/svg" viewBox="0 0 300 200" role="img" aria-label="GooseStrike mark">
  <defs>
    <style>
      .goose-fill { fill: #0b0c0d; }
      .accent-red { fill: #d90429; }
      .leaf-fill { fill: #d90429; }
      .type { font-family: 'Oswald', 'Arial Black', sans-serif; font-size: 32px; font-weight: 700; letter-spacing: 2px; fill: #0b0c0d; }
    </style>
  </defs>
  <rect width="300" height="200" fill="none" />
  <path class="goose-fill" d="M206 33c-32.7-14.7-78-16.4-104.1 8.4-12.9 12.4-19.7 29.6-16.5 48.5 2.7 16 11.8 29.6 24.8 38.8-11.9 6.4-19.4 17.5-19.4 29.6 0 22 21.5 39.1 56.7 39.1 20.6 0 37.6-4.8 50.7-13.7l-9.5-15c-8.9 6.3-22 10.6-37.5 10.6-19.6 0-32.8-8.2-32.8-20 0-7.7 8.1-15.5 22.8-17.7l26.6-4c36.4-5.5 63.3-28.2 63.3-66.1-.1-28.4-17.1-51.7-45.1-62.5zm-12.6 101.8-24.9 3.7c-15.5-9.4-26-25.8-26-43.4 0-32.7 34.2-52 68.5-43.9 23.3 5.5 36.7 22.5 36.7 43.6 0 27.3-21.3 34.4-54.3 40z"/>
  <path class="goose-fill" d="M210.7 48.4c9.9 2.7 19.1 8.3 25.6 16.1 4.6-6.5 5.2-14.8 1.2-20.8-5.3-7.8-17.5-11.9-30-10.4-5.7.7-10.5 2.5-14 5 6.9 1.2 12.8 3.4 17.2 6.1z"/>
  <path class="accent-red" d="M227.4 60.4c-2.9 3.8-7.5 6.7-13.2 8.2 4 4 9.2 6.6 14.1 7.3 6.3.9 12.5-1 16.4-5.3 1.9-2.1 3.1-4.6 3.3-7.2-6.2 1.6-13.1 1.2-20.6-3z"/>
  <polygon class="leaf-fill" points="122 88 132 88 135 72 142 88 152 88 144 101 154 112 140 113 135 128 128 112 116 114 125 101"/>
  <text class="type" x="40" y="182">GOOSE STRIKE</text>
</svg>
