<?xml version="1.0" encoding="UTF-8"?>
<svg width="640" height="640" viewBox="0 0 640 640" xmlns="http://www.w3.org/2000/svg" role="img" aria-label="GooseStrike official crest">
  <defs>
    <linearGradient id="bg" x1="0%" x2="100%" y1="0%" y2="100%">
      <stop offset="0%" stop-color="#101112" />
      <stop offset="55%" stop-color="#1c1e20" />
      <stop offset="100%" stop-color="#2b2f36" />
    </linearGradient>
    <linearGradient id="beak" x1="0%" x2="100%" y1="0%" y2="100%">
      <stop offset="0%" stop-color="#e43d3d" />
      <stop offset="100%" stop-color="#a10b0b" />
    </linearGradient>
    <filter id="shadow" x="-20%" y="-20%" width="140%" height="140%">
      <feDropShadow dx="0" dy="12" stdDeviation="12" flood-color="#000" flood-opacity="0.65" />
    </filter>
  </defs>
  <rect width="640" height="640" rx="64" fill="url(#bg)" />
  <g filter="url(#shadow)">
    <path d="M365 120c-88 0-162 78-162 174 0 73 43 122 96 138-4 18-38 58-68 76 0 0 120-18 152-142 44-1 112-44 125-112 20-106-82-134-143-134z" fill="#f7f7f2"/>
    <path d="M274 178c-12 8-18 18-18 30 0 20 22 36 54 36 38 0 94-24 142-78-40 8-78-2-106-10-34-10-58-4-72 22z" fill="#050505"/>
    <path d="M360 210c-18 0-32 10-32 24s14 24 32 24 32-10 32-24-14-24-32-24z" fill="#f7f7f2"/>
    <path d="M418 204c48-22 90-22 122 0-6-54-58-88-128-88-42 0-92 10-142 32 42 26 82 34 148 56z" fill="#050505"/>
    <path d="M468 232c-16 14-20 34-10 46 12 16 38 14 58-4 22-20 22-46 2-64-18-16-44-18-64-4-10 8-10 16-4 26 10-8 22-8 34 0 14 10 12 24-4 36-12 10-26 12-36 2 0-6 2-12 10-18z" fill="#050505"/>
    <path d="M270 374c-26 62-70 104-120 126 72 10 142-12 186-66 32-40 46-94 46-124-36 26-78 44-112 64z" fill="#050505"/>
    <path d="M322 330l-42 60 62-28c28-14 50-30 66-54-34 10-64 16-86 22z" fill="#050505"/>
    <path d="M256 426 320 512l60-86z" fill="#050505"/>
    <path d="M320 500l-80 32 20 32 88-12z" fill="#050505" opacity="0.8"/>
    <path d="M320 328 208 448l116-56 100 50z" fill="#050505" opacity="0.85"/>
    <path d="M326 360c-30 0-56 24-56 52s26 52 56 52 56-24 56-52-26-52-56-52z" fill="#050505" opacity="0.9"/>
    <path d="M346 370c-18 0-32 12-32 28s14 28 32 28 32-12 32-28-14-28-32-28z" fill="#f5f5f5"/>
    <path d="M320 260c-58 58-88 118-88 178l62-32 26-76 24 76 68 30c0-96-26-160-92-176z" fill="#d90429"/>
    <path d="M320 272c-42 44-62 90-62 138l44-22 18-50 16 50 46 20c0-68-18-114-62-136z" fill="#fdf7f7"/>
    <path d="M448 132c-10 0-20 4-28 12 28 0 52 10 70 24 10 8 18 18 24 28 4-4 6-10 6-18 0-26-32-46-72-46z" fill="#050505"/>
    <path d="M480 188c-6 0-12 2-18 6 10 8 18 18 22 32 8-2 12-6 12-14 0-12-8-24-16-24z" fill="#050505"/>
    <path d="M430 220c-10 0-18 6-18 14 0 8 8 14 18 14s18-6 18-14c0-8-8-14-18-14z" fill="#fefefe"/>
    <path d="M512 248c-6 0-10 2-14 6 6 4 10 12 10 20 8-2 12-6 12-12 0-8-4-14-8-14z" fill="#fefefe"/>
    <path d="M392 190c-10 0-18 4-18 10s8 10 18 10 18-4 18-10-8-10-18-10z" fill="#fefefe"/>
    <path d="M360 144c-10 0-18 6-18 12s8 12 18 12 18-6 18-12-8-12-18-12z" fill="#fefefe"/>
    <path d="M428 144c-6 0-12 2-16 6 12 4 22 10 30 18 2-2 2-4 2-6 0-10-8-18-16-18z" fill="#be1e2d"/>
    <path d="M448 176c-6 0-12 2-16 6 10 6 18 14 22 22 4-2 6-6 6-10 0-10-6-18-12-18z" fill="url(#beak)"/>
  </g>
</svg>
